<svg width="34" height="34" viewBox="0 0 34 34" fill="none" xmlns="http://www.w3.org/2000/svg">
<g id="fluent:home-24-regular">
<path id="Vector" d="M14.9458 3.58709C15.5207 3.10262 16.2482 2.83691 17 2.83691C17.7518 2.83691 18.4793 3.10262 19.0542 3.58709L28.6167 11.6508C29.3349 12.2571 29.75 13.1482 29.75 14.0874V27.2766C29.75 27.9341 29.4888 28.5647 29.0239 29.0296C28.5589 29.4946 27.9283 29.7558 27.2708 29.7558H22.3125C21.655 29.7558 21.0244 29.4946 20.5595 29.0296C20.0945 28.5647 19.8333 27.9341 19.8333 27.2766V20.1833C19.8333 20.0894 19.796 19.9993 19.7296 19.9329C19.6632 19.8665 19.5731 19.8292 19.4792 19.8292H14.5208C14.4269 19.8292 14.3368 19.8665 14.2704 19.9329C14.204 19.9993 14.1667 20.0894 14.1667 20.1833V27.2766C14.1667 27.9341 13.9055 28.5647 13.4405 29.0296C12.9756 29.4946 12.345 29.7558 11.6875 29.7558H6.72917C6.4036 29.7558 6.08122 29.6916 5.78043 29.567C5.47964 29.4424 5.20634 29.2598 4.97613 29.0296C4.74592 28.7994 4.56331 28.5261 4.43872 28.2253C4.31413 27.9245 4.25 27.6022 4.25 27.2766V14.0874C4.25 13.1482 4.66508 12.2571 5.38333 11.6508L14.9458 3.58709ZM17.6842 5.21201C17.4927 5.05076 17.2504 4.96234 17 4.96234C16.7496 4.96234 16.5073 5.05076 16.3158 5.21201L6.75325 13.2743C6.63491 13.3739 6.53975 13.4981 6.47442 13.6383C6.40909 13.7785 6.37516 13.9313 6.375 14.086V27.2752C6.375 27.4707 6.53367 27.6293 6.72917 27.6293H11.6875C11.7814 27.6293 11.8715 27.592 11.9379 27.5256C12.0044 27.4592 12.0417 27.3691 12.0417 27.2752V20.1819C12.0417 18.812 13.1523 17.7028 14.5208 17.7028H19.4792C20.8477 17.7028 21.9583 18.812 21.9583 20.1819V27.2752C21.9583 27.4707 22.117 27.6293 22.3125 27.6293H27.2708C27.3648 27.6293 27.4548 27.592 27.5213 27.5256C27.5877 27.4592 27.625 27.3691 27.625 27.2752V14.086C27.6248 13.9313 27.5909 13.7785 27.5256 13.6383C27.4602 13.4981 27.3651 13.3739 27.2467 13.2743L17.6842 5.21201Z" fill="#C5C5C5"/>
</g>
</svg>
