<svg width="34" height="34" viewBox="0 0 34 34" fill="none" xmlns="http://www.w3.org/2000/svg">
<g id="material-symbols:group-outline">
<path id="Vector" d="M1.41675 28.3335V24.3668C1.41675 23.564 1.62358 22.8259 2.03725 22.1525C2.45091 21.4791 2.99964 20.9658 3.68341 20.6126C5.1473 19.8807 6.6348 19.3315 8.14591 18.965C9.65703 18.5986 11.1917 18.4158 12.7501 18.4168C14.3084 18.4168 15.8431 18.6 17.3542 18.9665C18.8654 19.3329 20.3529 19.8816 21.8167 20.6126C22.5015 20.9668 23.0507 21.4806 23.4643 22.154C23.878 22.8273 24.0844 23.565 24.0834 24.3668V28.3335H1.41675ZM26.9167 28.3335V24.0835C26.9167 23.0446 26.6273 22.0468 26.0483 21.09C25.4694 20.1333 24.6491 19.3131 23.5876 18.6293C24.7917 18.771 25.9251 19.0132 26.9876 19.356C28.0501 19.6989 29.0417 20.1177 29.9626 20.6126C30.8126 21.0848 31.4619 21.61 31.9105 22.188C32.3591 22.766 32.5834 23.3978 32.5834 24.0835V28.3335H26.9167ZM12.7501 17.0001C11.1917 17.0001 9.85772 16.4453 8.748 15.3355C7.63828 14.2258 7.08341 12.8918 7.08341 11.3335C7.08341 9.77512 7.63828 8.44109 8.748 7.33137C9.85772 6.22165 11.1917 5.66678 12.7501 5.66678C14.3084 5.66678 15.6424 6.22165 16.7522 7.33137C17.8619 8.44109 18.4167 9.77512 18.4167 11.3335C18.4167 12.8918 17.8619 14.2258 16.7522 15.3355C15.6424 16.4453 14.3084 17.0001 12.7501 17.0001ZM26.9167 11.3335C26.9167 12.8918 26.3619 14.2258 25.2522 15.3355C24.1424 16.4453 22.8084 17.0001 21.2501 17.0001C20.9904 17.0001 20.6598 16.9704 20.2584 16.9109C19.857 16.8514 19.5265 16.7867 19.2667 16.7168C19.9042 15.9612 20.3944 15.123 20.7372 14.2022C21.0801 13.2814 21.251 12.3251 21.2501 11.3335C21.2501 10.3418 21.0791 9.38553 20.7372 8.4647C20.3954 7.54387 19.9052 6.70567 19.2667 5.95012C19.5973 5.83206 19.9279 5.75509 20.2584 5.7192C20.589 5.68331 20.9195 5.66584 21.2501 5.66678C22.8084 5.66678 24.1424 6.22165 25.2522 7.33137C26.3619 8.44109 26.9167 9.77512 26.9167 11.3335ZM4.25008 25.5001H21.2501V24.3668C21.2501 24.1071 21.1849 23.871 21.0546 23.6585C20.9242 23.446 20.7533 23.2807 20.5417 23.1626C19.2667 22.5251 17.9799 22.0472 16.6813 21.729C15.3827 21.4107 14.0723 21.2511 12.7501 21.2501C11.4279 21.2501 10.1174 21.4097 8.81883 21.729C7.52022 22.0482 6.23341 22.5261 4.95841 23.1626C4.74591 23.2807 4.5745 23.446 4.44416 23.6585C4.31383 23.871 4.24914 24.1071 4.25008 24.3668V25.5001ZM12.7501 14.1668C13.5292 14.1668 14.1965 13.8891 14.7518 13.3338C15.3072 12.7785 15.5844 12.1117 15.5834 11.3335C15.5834 10.5543 15.3057 9.88703 14.7504 9.3317C14.1951 8.77637 13.5283 8.49917 12.7501 8.50012C11.9709 8.50012 11.3037 8.77778 10.7483 9.33312C10.193 9.88845 9.9158 10.5552 9.91675 11.3335C9.91675 12.1126 10.1944 12.7799 10.7497 13.3352C11.3051 13.8905 11.9719 14.1677 12.7501 14.1668Z" fill="#C5C5C5"/>
</g>
</svg>
