<?xml version="1.0" standalone="no"?>
<!DOCTYPE svg PUBLIC "-//W3C//DTD SVG 20010904//EN"
 "http://www.w3.org/TR/2001/REC-SVG-20010904/DTD/svg10.dtd">
<svg version="1.0" xmlns="http://www.w3.org/2000/svg"
 width="512.000000pt" height="512.000000pt" viewBox="0 0 512.000000 512.000000"
 preserveAspectRatio="xMidYMid meet">
<metadata>
Created by potrace 1.16, written by Peter Selinger 2001-2019
</metadata>
<g transform="translate(0.000000,512.000000) scale(0.100000,-0.100000)"
fill="#000000" stroke="none">
<path d="M535 4585 l-25 -24 0 -551 0 -551 25 -24 c35 -36 88 -34 126 4 l29
29 0 481 0 481 481 0 481 0 29 29 c38 38 40 91 4 126 l-24 25 -551 0 -551 0
-24 -25z"/>
<path d="M3435 4585 c-36 -35 -34 -88 4 -126 l29 -29 481 0 481 0 0 -481 0
-481 29 -29 c38 -38 91 -40 126 -4 l25 24 0 551 0 551 -25 24 -24 25 -551 0
-551 0 -24 -25z"/>
<path d="M1046 4074 l-26 -27 0 -464 0 -464 25 -24 24 -25 466 0 466 0 24 25
25 24 0 466 0 466 -25 24 -24 25 -464 0 -464 0 -27 -26z m824 -489 l0 -335
-335 0 -335 0 0 335 0 335 335 0 335 0 0 -335z"/>
<path d="M1389 3731 c-29 -29 -29 -31 -29 -141 0 -172 8 -179 178 -180 117 0
124 1 147 25 24 23 25 30 25 147 -1 170 -8 178 -180 178 -110 0 -112 0 -141
-29z"/>
<path d="M2243 4076 c-28 -24 -28 -25 -28 -151 0 -126 0 -127 28 -151 38 -32
90 -32 122 1 24 23 25 29 25 154 0 128 0 130 -26 150 -36 28 -86 27 -121 -3z"/>
<path d="M3095 4075 l-25 -24 0 -466 0 -466 25 -24 24 -25 466 0 466 0 24 25
25 24 0 464 0 464 -26 27 -27 26 -464 0 -464 0 -24 -25z m825 -490 l0 -335
-335 0 -335 0 0 335 0 335 335 0 335 0 0 -335z"/>
<path d="M3455 3748 c-40 -23 -44 -39 -45 -166 0 -117 1 -124 25 -147 23 -24
30 -25 147 -25 170 1 178 8 178 180 0 110 0 112 -29 141 -29 29 -31 29 -143
29 -66 0 -121 -5 -133 -12z"/>
<path d="M2585 3905 c-24 -23 -25 -28 -25 -170 l0 -145 -144 0 c-137 0 -146
-1 -172 -23 -38 -33 -38 -101 0 -134 26 -22 32 -23 231 -23 201 0 204 0 232
24 28 24 28 24 31 170 l4 146 53 0 c74 0 108 28 108 90 0 35 -6 48 -27 67 -25
21 -36 23 -147 23 -114 0 -121 -1 -144 -25z"/>
<path d="M2429 3235 c-43 -23 -49 -60 -49 -286 l0 -209 -40 0 c-63 0 -106 -22
-119 -62 -13 -41 1 -93 29 -108 11 -6 111 -10 229 -10 198 0 212 1 231 20 22
22 27 87 10 120 -12 23 -61 40 -116 40 l-44 0 0 165 0 165 148 0 c141 0 150 1
169 23 11 12 23 33 26 46 9 35 -17 89 -48 101 -43 16 -395 12 -426 -5z"/>
<path d="M1083 2903 c-13 -3 -32 -16 -43 -30 -19 -24 -20 -40 -20 -314 0 -287
0 -288 23 -315 19 -21 32 -27 67 -27 35 0 48 6 67 27 22 26 23 35 23 172 l0
144 149 0 150 0 20 26 c28 36 27 86 -3 121 -24 28 -24 28 -170 31 l-146 4 0
53 c0 79 -45 121 -117 108z"/>
<path d="M2955 2899 c-50 -14 -55 -31 -55 -169 0 -119 1 -128 23 -148 23 -22
76 -29 112 -16 32 13 45 59 45 163 0 121 -9 147 -55 166 -19 8 -36 15 -37 14
-2 0 -16 -5 -33 -10z"/>
<path d="M3464 2901 c-51 -22 -54 -39 -54 -283 l0 -228 -149 0 -150 0 -20 -26
c-19 -24 -21 -40 -21 -170 l0 -144 -64 0 c-58 0 -67 -3 -85 -26 -28 -35 -28
-97 -1 -124 28 -28 55 -32 174 -28 150 4 150 4 154 193 l3 145 125 0 c141 0
188 13 204 55 6 15 10 125 10 246 l0 219 59 0 c73 0 100 19 108 76 4 33 1 45
-20 70 -25 29 -27 29 -139 31 -62 2 -123 -2 -134 -6z"/>
<path d="M1899 2711 c-23 -18 -24 -25 -27 -170 l-3 -151 -144 0 c-126 0 -146
-2 -166 -19 -33 -27 -34 -101 -1 -133 22 -23 23 -23 375 -26 193 -2 367 0 385
3 49 9 72 37 72 88 0 33 -6 49 -23 65 -22 21 -33 22 -170 22 l-147 0 0 148 c0
142 -1 149 -23 170 -30 28 -95 30 -128 3z"/>
<path d="M3941 2704 c-19 -24 -21 -40 -21 -170 l0 -144 -64 0 c-58 0 -67 -3
-85 -26 -28 -36 -27 -86 3 -121 24 -28 25 -28 151 -28 126 0 127 0 151 28 24
28 24 31 24 231 0 191 -1 205 -21 230 -17 22 -28 26 -69 26 -41 0 -52 -4 -69
-26z"/>
<path d="M2582 2197 c-21 -22 -22 -33 -22 -170 l0 -147 -144 0 c-139 0 -146
-1 -173 -24 -28 -24 -28 -25 -28 -150 0 -117 1 -127 23 -148 17 -17 34 -23 68
-23 63 0 84 26 84 106 l0 59 85 0 85 0 0 -59 c0 -80 21 -106 84 -106 34 0 51
6 68 23 23 22 23 24 23 316 l0 294 -24 26 c-33 35 -98 36 -129 3z"/>
<path d="M1045 2025 l-25 -24 0 -463 c1 -348 4 -467 13 -479 29 -38 45 -39
512 -39 l456 0 24 25 25 24 0 466 0 466 -25 24 -24 25 -466 0 -466 0 -24 -25z
m825 -490 l0 -335 -335 0 -335 0 0 335 0 335 335 0 335 0 0 -335z"/>
<path d="M1399 1697 c-32 -24 -39 -56 -39 -167 0 -110 0 -112 29 -141 29 -29
31 -29 141 -29 172 0 179 8 180 178 0 117 -1 124 -25 147 -23 24 -30 25 -147
25 -81 -1 -128 -5 -139 -13z"/>
<path d="M3435 2025 c-36 -35 -34 -88 4 -126 l29 -29 226 0 226 0 0 -141 0
-141 29 -29 c31 -31 67 -37 104 -17 44 23 46 33 47 251 0 208 0 208 -25 232
l-24 25 -296 0 -296 0 -24 -25z"/>
<path d="M535 1685 l-25 -24 0 -551 0 -551 25 -24 24 -25 551 0 551 0 24 25
c36 35 34 88 -4 126 l-29 29 -481 0 -481 0 0 481 0 481 -29 29 c-38 38 -91 40
-126 4z"/>
<path d="M3095 1685 c-21 -20 -25 -34 -25 -85 l0 -60 -60 0 c-51 0 -65 -4 -85
-25 -24 -23 -25 -28 -25 -170 l0 -145 -229 0 c-216 0 -230 -1 -255 -21 -22
-17 -26 -28 -26 -69 0 -41 4 -52 26 -69 26 -20 38 -21 315 -21 l288 0 28 24
c28 24 28 24 31 170 l3 146 54 0 c43 0 60 5 82 24 27 24 28 27 31 145 l4 121
-30 30 c-39 39 -92 41 -127 5z"/>
<path d="M4459 1681 l-29 -29 0 -481 0 -481 -481 0 -481 0 -29 -29 c-38 -38
-40 -91 -4 -126 l24 -25 551 0 551 0 24 25 25 24 0 551 0 551 -25 24 c-35 36
-88 34 -126 -4z"/>
<path d="M3605 1515 c-24 -23 -25 -29 -25 -168 l0 -145 -66 -4 c-55 -3 -70 -8
-85 -27 -28 -34 -25 -96 6 -126 l24 -25 296 0 296 0 24 25 c41 40 29 121 -22
144 -14 6 -81 11 -158 11 l-135 0 0 136 c0 172 -14 203 -93 204 -27 0 -45 -7
-62 -25z"/>
</g>
</svg>
