<?xml version="1.0" standalone="no"?>
<!DOCTYPE svg PUBLIC "-//W3C//DTD SVG 20010904//EN"
 "http://www.w3.org/TR/2001/REC-SVG-20010904/DTD/svg10.dtd">
<svg version="1.0" xmlns="http://www.w3.org/2000/svg"
 width="512.000000pt" height="512.000000pt" viewBox="0 0 512.000000 512.000000"
 preserveAspectRatio="xMidYMid meet">
<metadata>
Created by potrace 1.16, written by Peter Selinger 2001-2019
</metadata>
<g transform="translate(0.000000,512.000000) scale(0.100000,-0.100000)"
fill="#000000" stroke="none">
<path d="M3250 4144 c-124 -32 -257 -117 -335 -214 l-37 -46 -86 29 c-179 60
-384 46 -557 -38 -163 -79 -274 -190 -350 -350 -68 -140 -75 -195 -75 -552 l0
-307 -192 -451 c-220 -515 -221 -521 -156 -581 l38 -34 1059 0 1059 0 31 25
c35 30 56 85 46 122 -3 14 -91 227 -196 473 l-189 446 0 107 0 107 103 0 c189
0 321 54 453 185 64 64 89 98 122 165 94 192 94 388 0 580 -78 160 -239 291
-413 335 -75 19 -251 19 -325 -1z m345 -248 c86 -43 159 -117 201 -204 37 -75
45 -212 19 -293 -37 -116 -120 -209 -233 -262 -61 -29 -76 -32 -167 -32 -92 0
-106 3 -168 32 -175 83 -281 272 -249 444 30 162 139 290 292 341 42 14 76 17
143 14 77 -3 98 -8 162 -40z m-929 -181 c117 -27 110 -15 109 -178 0 -123 3
-152 24 -215 42 -129 137 -257 249 -334 l42 -29 0 -177 1 -177 164 -390 164
-390 -856 -3 c-471 -1 -858 -1 -860 1 -2 2 71 181 162 397 l165 392 0 322 c0
356 6 402 62 510 47 90 147 185 238 229 117 56 222 69 336 42z"/>
<path d="M3327 3716 l-48 -43 3 -63 3 -62 48 42 47 42 0 -171 0 -171 55 0 55
0 0 235 0 235 -57 0 c-54 -1 -61 -4 -106 -44z"/>
<path d="M2275 1366 c-20 -30 -14 -56 26 -110 36 -50 107 -100 163 -116 65
-18 181 -9 237 18 55 27 122 91 145 141 15 31 15 38 3 61 l-15 25 -272 3 -271
2 -16 -24z"/>
</g>
</svg>
