<?xml version="1.0" standalone="no"?>
<!DOCTYPE svg PUBLIC "-//W3C//DTD SVG 20010904//EN"
 "http://www.w3.org/TR/2001/REC-SVG-20010904/DTD/svg10.dtd">
<svg version="1.0" xmlns="http://www.w3.org/2000/svg"
 width="512.000000pt" height="512.000000pt" viewBox="0 0 512.000000 512.000000"
 preserveAspectRatio="xMidYMid meet">
<metadata>
Created by potrace 1.16, written by Peter Selinger 2001-2019
</metadata>
<g transform="translate(0.000000,512.000000) scale(0.100000,-0.100000)"
fill="#000000" stroke="none">
<path d="M482 5105 c-30 -7 -92 -32 -140 -55 -123 -61 -214 -154 -275 -281
-25 -52 -50 -118 -56 -147 -8 -37 -11 -562 -11 -1723 0 -1853 -6 -1704 67
-1754 57 -38 135 -36 193 6 24 17 242 197 485 400 l443 369 1210 0 c831 0
1228 3 1264 11 29 6 95 31 147 56 131 63 221 153 284 284 25 52 50 118 56 147
15 74 15 2130 0 2204 -6 29 -31 95 -56 147 -63 131 -153 221 -284 284 -52 25
-118 50 -147 56 -83 17 -3109 14 -3180 -4z m3151 -333 c76 -31 148 -103 179
-179 l23 -58 0 -1015 0 -1015 -23 -58 c-31 -76 -103 -148 -179 -179 l-58 -23
-1261 -5 -1261 -5 -39 -30 c-21 -16 -186 -152 -367 -303 l-327 -273 2 1453 3
1453 23 57 c42 104 137 178 251 198 25 4 705 7 1511 6 l1465 -1 58 -23z"/>
<path d="M1032 4140 c-48 -30 -72 -75 -72 -140 0 -65 24 -110 72 -140 32 -20
53 -20 1048 -20 995 0 1016 0 1048 20 48 30 72 75 72 140 0 65 -24 110 -72
140 -32 20 -53 20 -1048 20 -995 0 -1016 0 -1048 -20z"/>
<path d="M1032 3500 c-48 -30 -72 -75 -72 -140 0 -65 24 -110 72 -140 32 -19
52 -20 728 -20 676 0 696 1 728 20 48 30 72 75 72 140 0 65 -24 110 -72 140
-32 19 -52 20 -728 20 -676 0 -696 -1 -728 -20z"/>
<path d="M4392 3820 c-48 -30 -72 -75 -72 -140 0 -99 53 -153 164 -165 140
-16 241 -87 288 -202 l23 -58 3 -1373 c1 -754 0 -1372 -3 -1372 -3 0 -106 80
-228 178 -122 98 -249 198 -281 223 l-59 44 -1181 5 -1181 5 -58 23 c-78 32
-148 103 -177 179 -18 46 -23 87 -28 195 -5 153 -15 182 -74 218 -45 27 -131
27 -176 0 -63 -39 -72 -67 -72 -237 0 -185 9 -231 67 -352 63 -131 153 -221
284 -284 52 -25 118 -50 147 -56 36 -8 411 -11 1184 -11 l1130 0 387 -309
c212 -169 396 -313 408 -320 40 -21 124 -14 166 14 73 50 67 -90 67 1674 0
1103 -3 1606 -11 1643 -6 29 -31 95 -56 147 -63 131 -153 221 -284 284 -107
52 -170 67 -272 67 -54 0 -80 -5 -105 -20z"/>
</g>
</svg>
