<?xml version="1.0" standalone="no"?>
<!DOCTYPE svg PUBLIC "-//W3C//DTD SVG 20010904//EN"
 "http://www.w3.org/TR/2001/REC-SVG-20010904/DTD/svg10.dtd">
<svg version="1.0" xmlns="http://www.w3.org/2000/svg"
 width="512.000000pt" height="512.000000pt" viewBox="0 0 512.000000 512.000000"
 preserveAspectRatio="xMidYMid meet">
<metadata>
Created by potrace 1.16, written by Peter Selinger 2001-2019
</metadata>
<g transform="translate(0.000000,512.000000) scale(0.100000,-0.100000)"
fill="#000000" stroke="none">
<path d="M1082 5096 c-124 -47 -212 -126 -270 -246 l-37 -75 0 -925 0 -925 23
-58 c48 -117 152 -221 270 -269 54 -22 71 -23 330 -26 l272 -3 0 -295 c0 -319
2 -330 56 -373 32 -25 82 -35 132 -26 32 6 83 52 382 351 l345 344 1090 2
1090 3 57 23 c118 48 222 152 270 269 l23 58 3 904 c2 889 2 906 -18 967 -42
126 -127 222 -250 282 l-75 37 -1815 2 -1815 2 -63 -23z m901 -600 c74 -50 74
-152 0 -202 -24 -16 -52 -19 -205 -22 l-178 -4 0 -144 0 -144 138 0 c75 0 153
-5 173 -10 95 -27 123 -142 48 -204 -30 -26 -33 -26 -195 -26 l-164 0 0 -212
c0 -117 -5 -231 -10 -253 -29 -127 -201 -127 -230 0 -12 52 -12 1088 0 1139
11 48 46 85 91 96 19 5 140 8 269 7 212 -2 238 -4 263 -21z m2084 -2 c184 -41
355 -179 444 -359 94 -191 90 -414 -11 -604 l-33 -62 45 -47 c55 -56 68 -80
68 -122 0 -86 -90 -146 -163 -109 -12 6 -44 33 -72 60 l-50 48 -45 -28 c-104
-63 -210 -92 -344 -92 -111 0 -185 19 -296 73 -67 32 -102 58 -166 122 -140
140 -199 280 -199 471 0 191 59 331 199 470 172 171 384 232 623 179z m-1377
-10 c17 -15 37 -38 44 -53 24 -46 426 -1119 426 -1137 0 -31 -33 -85 -61 -99
-40 -21 -96 -19 -129 5 -22 15 -40 49 -71 130 l-42 110 -252 0 -252 0 -42
-110 c-31 -81 -49 -115 -71 -130 -33 -24 -89 -26 -129 -5 -28 14 -61 68 -61
100 0 22 427 1145 443 1164 46 56 145 69 197 25z"/>
<path d="M3785 4257 c-147 -49 -253 -159 -290 -302 -53 -205 42 -407 235 -499
61 -29 72 -31 180 -31 98 0 122 3 164 22 l48 23 -60 64 c-33 36 -63 78 -67 94
-14 66 50 142 121 142 33 0 88 -35 138 -89 17 -17 33 -31 37 -31 15 0 49 132
49 189 0 170 -88 314 -237 388 -71 35 -83 38 -177 40 -64 2 -116 -2 -141 -10z"/>
<path d="M2595 4073 c-4 -10 -35 -92 -70 -183 -35 -91 -66 -173 -70 -182 -7
-17 4 -18 149 -18 86 0 156 2 156 4 0 10 -143 382 -149 389 -5 5 -12 0 -16
-10z"/>
<path d="M363 3236 c-141 -34 -257 -130 -321 -263 l-37 -78 -3 -900 c-3 -815
-1 -906 14 -963 30 -115 127 -233 236 -288 83 -42 151 -54 305 -54 l143 0 0
-297 c0 -275 2 -300 19 -327 31 -47 69 -66 132 -66 46 0 63 5 95 29 21 16 181
171 354 345 l315 316 1060 0 c908 0 1069 2 1118 15 162 42 290 162 338 316 18
57 19 100 19 655 l0 594 -727 0 -727 0 -305 -303 c-334 -331 -363 -354 -499
-379 -184 -34 -384 71 -468 247 -39 81 -53 167 -54 326 l0 106 -117 7 c-141 8
-223 27 -321 72 -177 81 -305 209 -387 387 -48 106 -64 184 -71 360 l-7 157
-26 -1 c-14 0 -49 -6 -78 -13z"/>
</g>
</svg>
