<?xml version="1.0" standalone="no"?>
<!DOCTYPE svg PUBLIC "-//W3C//DTD SVG 20010904//EN"
 "http://www.w3.org/TR/2001/REC-SVG-20010904/DTD/svg10.dtd">
<svg version="1.0" xmlns="http://www.w3.org/2000/svg"
 width="512.000000pt" height="512.000000pt" viewBox="0 0 512.000000 512.000000"
 preserveAspectRatio="xMidYMid meet">
<metadata>
Created by potrace 1.16, written by Peter Selinger 2001-2019
</metadata>
<g transform="translate(0.000000,512.000000) scale(0.100000,-0.100000)"
fill="#000000" stroke="none">
<path d="M709 4494 c-59 -18 -130 -81 -160 -141 -20 -42 -23 -66 -27 -204 l-4
-156 -157 -5 c-176 -6 -218 -19 -284 -85 -78 -77 -72 21 -75 -1198 -2 -997 -1
-1094 14 -1134 23 -60 79 -119 139 -147 44 -21 65 -24 173 -24 l122 0 0 -364
0 -365 24 -28 c20 -23 32 -28 73 -28 48 0 50 2 567 393 l520 392 1273 0 1274
0 167 -126 c92 -70 178 -130 192 -133 41 -11 77 -2 104 26 l26 26 0 362 0 363
128 4 c105 3 134 8 168 26 64 33 100 68 128 124 l26 52 0 1091 0 1091 -26 52
c-32 65 -93 118 -158 137 -73 22 -4156 21 -4227 -1z m4171 -204 c10 -5 23 -24
29 -41 15 -44 16 -2023 1 -2066 -17 -46 -44 -53 -218 -53 -168 0 -187 -5 -214
-53 -9 -16 -14 -107 -18 -320 l-5 -297 -444 335 -444 335 -608 0 -609 0 -30
-27 c-57 -51 -42 -147 26 -173 15 -6 248 -10 587 -11 l562 0 204 -154 203
-155 -1175 -2 -1174 -3 -441 -332 c-243 -183 -443 -333 -446 -333 -4 0 -6 127
-7 283 0 318 -4 342 -59 369 -29 15 -63 18 -196 18 -151 0 -162 1 -180 21 -18
20 -19 52 -19 1060 l0 1038 23 23 c21 21 33 23 157 26 l134 4 3 -829 3 -828
27 -51 c30 -57 80 -105 136 -131 33 -16 82 -18 426 -21 410 -3 431 -1 461 42
8 11 15 40 15 64 0 35 -6 49 -29 73 l-29 29 -377 0 -376 0 -24 25 -25 24 0
1036 0 1036 25 24 24 25 2041 0 c1312 0 2048 -3 2060 -10z"/>
<path d="M3803 3978 c-129 -13 -238 -70 -344 -179 -126 -129 -189 -294 -189
-494 0 -214 60 -366 199 -506 94 -94 165 -136 281 -165 127 -32 299 -4 413 66
27 17 51 30 55 30 4 0 48 -41 97 -91 50 -50 104 -97 122 -105 70 -30 143 20
143 98 0 39 -6 47 -107 149 l-106 108 37 73 c54 108 77 211 77 343 0 202 -65
368 -195 500 -139 141 -285 193 -483 173z m237 -249 c103 -55 191 -177 220
-304 24 -108 8 -261 -37 -349 l-15 -29 -86 86 c-96 94 -116 107 -162 107 -47
0 -100 -56 -100 -105 0 -34 9 -47 100 -140 55 -55 100 -104 100 -107 0 -3 -24
-16 -52 -29 -79 -35 -192 -34 -271 3 -157 74 -257 244 -257 437 1 103 12 156
50 236 101 210 322 294 510 194z"/>
<path d="M1165 3901 c-11 -5 -29 -19 -40 -31 -19 -22 -20 -38 -23 -641 -3
-688 -5 -666 63 -695 45 -19 90 -8 120 28 l25 30 0 289 0 289 264 0 c145 0
277 3 295 6 81 16 110 116 52 175 l-29 29 -291 0 -291 0 0 160 0 160 291 0
291 0 29 29 c52 53 34 147 -33 170 -37 13 -692 14 -723 2z"/>
<path d="M2524 3894 c-17 -8 -36 -25 -43 -37 -6 -12 -119 -278 -252 -592 -163
-386 -241 -582 -241 -607 -1 -74 65 -122 136 -98 44 14 48 22 136 228 l73 172
241 -2 240 -3 76 -177 c41 -97 83 -185 93 -196 36 -39 119 -33 155 11 39 47
36 56 -213 648 -131 310 -246 581 -256 601 -19 38 -62 68 -96 68 -10 0 -32 -7
-49 -16z m126 -548 c39 -92 69 -170 67 -172 -2 -3 -69 -3 -149 -2 l-145 3 59
140 c33 77 66 155 74 174 8 19 16 32 18 30 2 -2 36 -80 76 -173z"/>
<path d="M1872 2105 c-55 -46 -46 -137 17 -169 38 -20 64 -20 101 -1 37 19 50
43 50 95 0 88 -100 133 -168 75z"/>
</g>
</svg>
