<svg width="34" height="34" viewBox="0 0 34 34" fill="none" xmlns="http://www.w3.org/2000/svg">
<g id="healthicons:ui-user-profile">
<g id="Group">
<path id="Vector" d="M22.6666 14.1667C22.6666 15.6696 22.0696 17.1109 21.0069 18.1736C19.9442 19.2363 18.5028 19.8333 16.9999 19.8333C15.497 19.8333 14.0557 19.2363 12.993 18.1736C11.9303 17.1109 11.3333 15.6696 11.3333 14.1667C11.3333 12.6638 11.9303 11.2224 12.993 10.1597C14.0557 9.09702 15.497 8.5 16.9999 8.5C18.5028 8.5 19.9442 9.09702 21.0069 10.1597C22.0696 11.2224 22.6666 12.6638 22.6666 14.1667Z" fill="#09E069"/>
<path id="Vector_2" fill-rule="evenodd" clip-rule="evenodd" d="M16.4219 31.1553C8.86613 30.8521 2.83325 24.6301 2.83325 16.9999C2.83325 9.17567 9.17567 2.83325 16.9999 2.83325C24.8242 2.83325 31.1666 9.17567 31.1666 16.9999C31.1666 24.8242 24.8242 31.1666 16.9999 31.1666C16.9352 31.167 16.8705 31.167 16.8058 31.1666C16.6776 31.1666 16.5494 31.1623 16.4219 31.1553ZM7.90917 25.9391C7.80325 25.6349 7.76719 25.3108 7.80368 24.9908C7.84017 24.6707 7.94827 24.363 8.11995 24.0905C8.29163 23.818 8.52249 23.5876 8.79538 23.4165C9.06827 23.2454 9.3762 23.138 9.69629 23.1022C15.2185 22.4909 18.8154 22.5462 24.3106 23.115C24.6311 23.1483 24.9398 23.2544 25.2132 23.4251C25.4865 23.5958 25.7173 23.8267 25.8879 24.1C26.0585 24.3734 26.1645 24.6821 26.1978 25.0027C26.2311 25.3232 26.1908 25.6471 26.08 25.9497C28.4352 23.5668 29.7541 20.3503 29.7499 16.9999C29.7499 9.95838 24.0415 4.24992 16.9999 4.24992C9.95838 4.24992 4.24992 9.95838 4.24992 16.9999C4.24992 20.4821 5.64604 23.6384 7.90917 25.9391Z" fill="#09E069"/>
</g>
</g>
</svg>
