<?xml version="1.0" standalone="no"?>
<!DOCTYPE svg PUBLIC "-//W3C//DTD SVG 20010904//EN"
 "http://www.w3.org/TR/2001/REC-SVG-20010904/DTD/svg10.dtd">
<svg version="1.0" xmlns="http://www.w3.org/2000/svg"
 width="512.000000pt" height="512.000000pt" viewBox="0 0 512.000000 512.000000"
 preserveAspectRatio="xMidYMid meet">
<metadata>
Created by potrace 1.16, written by Peter Selinger 2001-2019
</metadata>
<g transform="translate(0.000000,512.000000) scale(0.100000,-0.100000)"
fill="#000000" stroke="none">
<path d="M2486 5094 c-26 -27 -26 -27 -26 -190 l0 -163 -52 -15 c-29 -8 -249
-67 -488 -131 -462 -123 -470 -126 -486 -189 -3 -14 88 -372 240 -940 135
-504 246 -922 246 -929 0 -6 -93 -105 -206 -218 l-207 -207 -24 28 c-13 16
-51 43 -85 59 l-61 31 -557 0 -557 0 -61 -31 c-69 -34 -104 -71 -138 -144
l-24 -50 0 -891 0 -891 31 -61 c34 -69 71 -104 144 -138 l50 -24 556 0 556 0
61 31 c67 33 112 80 139 145 l17 41 71 -62 c87 -76 146 -111 226 -136 58 -18
121 -19 1639 -19 l1577 0 27 26 26 27 0 2507 0 2507 -26 27 -27 26 -1277 0
-1277 0 -27 -26z m2424 -2534 l0 -2360 -349 0 -349 0 14 38 c17 47 17 156 0
203 l-13 37 67 4 c166 12 300 160 300 332 0 34 -6 83 -14 108 l-13 46 50 23
c171 80 245 305 154 465 -22 39 -22 41 -27 702 l-5 664 -28 24 c-42 36 -109
34 -148 -5 l-29 -29 0 -586 0 -586 -31 0 c-28 0 -31 2 -24 23 4 12 10 58 12
102 4 65 1 91 -17 137 -26 71 -97 151 -164 186 -45 23 -67 27 -176 31 -121 6
-124 6 -91 21 19 8 63 41 97 75 98 96 144 206 144 345 0 136 -45 247 -139 341
-94 94 -205 139 -341 139 -136 0 -247 -45 -341 -139 -102 -103 -145 -220 -137
-377 4 -80 10 -103 41 -169 40 -84 124 -177 192 -213 l40 -21 -262 -1 -263 0
0 949 0 948 46 13 c130 37 256 166 303 313 l13 37 368 0 368 0 13 -37 c47
-146 173 -276 303 -313 l45 -12 3 -180 3 -180 28 -24 c33 -28 100 -33 133 -9
41 28 45 59 42 304 l-3 233 -27 23 c-17 14 -47 26 -75 30 -154 20 -242 106
-263 257 -7 49 -15 68 -35 86 l-26 22 -510 0 -511 0 -29 -29 c-21 -21 -29 -39
-29 -63 0 -143 -106 -252 -263 -273 -28 -4 -58 -16 -75 -30 l-27 -23 -3 -1021
-2 -1021 -95 0 -95 0 0 1400 0 1400 1125 0 1125 0 0 -2360z m-2450 1782 l0
-178 -55 -18 c-60 -19 -88 -49 -87 -94 0 -15 2 -58 3 -97 1 -55 -3 -80 -21
-118 -28 -60 -97 -121 -161 -142 -50 -17 -73 -40 -84 -85 -4 -16 62 -274 190
-748 107 -398 195 -728 195 -733 0 -6 -38 -9 -92 -7 l-93 3 -52 205 c-29 112
-56 213 -62 225 -15 29 -473 1747 -468 1752 5 4 762 211 780 212 4 1 7 -79 7
-177z m-1 -1059 l0 -398 -87 320 -87 320 40 26 c22 14 60 49 85 76 25 28 46
51 48 52 1 1 2 -178 1 -396z m1468 -489 c167 -103 179 -333 25 -451 -117 -89
-288 -64 -379 55 -42 55 -57 111 -50 190 6 73 40 137 98 184 56 45 104 59 186
55 59 -3 82 -10 120 -33z m-1829 -847 l23 -22 1027 -5 c969 -5 1029 -6 1055
-23 87 -57 87 -177 0 -234 -25 -17 -67 -18 -574 -21 l-548 -3 -25 -30 c-35
-41 -35 -97 0 -138 l25 -30 702 -3 c667 -3 704 -4 733 -22 88 -53 88 -179 0
-232 -29 -18 -66 -19 -733 -22 l-702 -3 -25 -30 c-35 -41 -35 -97 0 -138 l25
-30 597 -3 597 -3 33 -23 c82 -59 82 -165 0 -224 l-33 -23 -597 -3 -597 -3
-25 -30 c-35 -41 -35 -97 -1 -138 l26 -30 422 -3 c469 -3 466 -3 507 -71 39
-63 15 -147 -52 -184 -31 -17 -90 -18 -978 -21 -581 -2 -969 1 -1008 7 -89 14
-126 36 -273 164 l-129 112 0 690 0 690 212 212 213 213 40 -160 c30 -115 47
-167 63 -183z m-1418 -515 c0 -661 -3 -630 65 -652 45 -15 99 2 123 38 15 24
17 79 20 620 l3 593 197 -3 c225 -3 243 -9 261 -75 15 -51 15 -1624 1 -1674
-6 -21 -22 -45 -38 -55 -25 -18 -59 -19 -497 -22 -259 -2 -490 0 -514 3 -26 4
-53 16 -67 30 l-24 24 0 853 c0 942 -4 888 63 907 18 5 116 10 220 10 l187 1
0 -598z"/>
<path d="M4553 3296 c-24 -21 -28 -32 -28 -76 0 -67 33 -100 100 -100 67 0
100 33 100 100 0 67 -33 100 -100 100 -32 0 -52 -7 -72 -24z"/>
<path d="M706 574 c-37 -38 -37 -110 0 -148 38 -37 110 -37 148 0 37 38 37
110 0 148 -21 21 -36 26 -74 26 -38 0 -53 -5 -74 -26z"/>
</g>
</svg>
