<svg width="15" height="17" viewBox="0 0 15 17" fill="none" xmlns="http://www.w3.org/2000/svg">
<path id="Vector" d="M13.8422 14.7016H1.71325C1.48348 14.7016 1.26312 14.7861 1.10065 14.9364C0.938179 15.0868 0.846903 15.2907 0.846903 15.5034C0.846903 15.716 0.938179 15.9199 1.10065 16.0703C1.26312 16.2206 1.48348 16.3051 1.71325 16.3051H13.8422C14.0719 16.3051 14.2923 16.2206 14.4548 16.0703C14.6173 15.9199 14.7085 15.716 14.7085 15.5034C14.7085 15.2907 14.6173 15.0868 14.4548 14.9364C14.2923 14.7861 14.0719 14.7016 13.8422 14.7016ZM1.71325 13.0981H1.79123L5.40391 12.7935C5.79966 12.757 6.1698 12.5956 6.4522 12.3365L14.2494 5.12086C14.552 4.82499 14.7155 4.43017 14.7042 4.0229C14.6928 3.61564 14.5075 3.22916 14.1887 2.94815L11.8149 0.751385C11.5051 0.482078 11.0991 0.327554 10.6742 0.317206C10.2493 0.306858 9.83511 0.441409 9.51042 0.695264L1.71325 7.9109C1.43322 8.17224 1.25886 8.51477 1.21943 8.88101L0.846903 12.2243C0.835232 12.3417 0.851698 12.46 0.895125 12.5709C0.938553 12.6818 1.00787 12.7824 1.09814 12.8656C1.1791 12.9399 1.2751 12.9987 1.38066 13.0386C1.48621 13.0785 1.59924 13.0988 1.71325 13.0981ZM10.6107 1.87382L12.9758 4.06256L11.2431 5.62595L8.9213 3.47729L10.6107 1.87382ZM2.90016 9.0173L7.77772 4.53559L10.1169 6.70028L5.2653 11.19L2.66624 11.4145L2.90016 9.0173Z" fill="#07DA65"/>
</svg>
