<svg width="25" height="25" viewBox="0 0 25 25" fill="none" xmlns="http://www.w3.org/2000/svg">
<g id="jam:write">
<path id="Vector" d="M8.04166 17.1417L9.87604 16.6126L20.9208 5.43548C21.0079 5.34621 21.0565 5.22624 21.0559 5.10151C21.0553 4.97677 21.0057 4.85727 20.9177 4.76881L20.2562 4.10006C20.2135 4.05614 20.1624 4.02118 20.106 3.99721C20.0496 3.97324 19.989 3.96074 19.9277 3.96045C19.8664 3.96016 19.8057 3.97208 19.7491 3.99551C19.6925 4.01895 19.6411 4.05343 19.5979 4.09694L8.58229 15.2449L8.04062 17.1407L8.04166 17.1417ZM21.5656 2.77506L22.2271 3.44486C23.1396 4.36881 23.1479 5.85944 22.2437 6.77402L10.8625 18.2928L6.94166 19.4219C6.70228 19.4889 6.4461 19.4582 6.22933 19.3366C6.01256 19.2149 5.85291 19.0122 5.78541 18.773C5.73518 18.601 5.73446 18.4183 5.78333 18.2459L6.92395 14.2459L18.275 2.75736C18.4908 2.54002 18.7478 2.36784 19.0309 2.25085C19.314 2.13386 19.6175 2.07441 19.9238 2.07596C20.2301 2.07751 20.533 2.14003 20.8149 2.25988C21.0968 2.37973 21.352 2.55555 21.5656 2.77506ZM9.56666 3.97611C10.0833 3.97611 10.5021 4.40006 10.5021 4.92298C10.5029 5.04659 10.4794 5.16916 10.4328 5.28366C10.3862 5.39817 10.3175 5.50237 10.2306 5.59031C10.1438 5.67825 10.0404 5.7482 9.92647 5.79617C9.81254 5.84413 9.69027 5.86917 9.56666 5.86986H5.82499C4.79166 5.86986 3.95416 6.71777 3.95416 7.76256V19.123C3.95416 20.1688 4.79166 21.0167 5.82499 21.0167H17.05C18.0833 21.0167 18.9219 20.1688 18.9219 19.123V15.3365C18.9219 14.8136 19.3406 14.3896 19.8573 14.3896C20.374 14.3896 20.7927 14.8136 20.7927 15.3376V19.123C20.7927 21.2146 19.1167 22.9105 17.05 22.9105H5.82499C3.75833 22.9105 2.08333 21.2146 2.08333 19.123V7.76256C2.08333 5.67194 3.75833 3.97611 5.82499 3.97611H9.56666Z" fill="white"/>
</g>
</svg>
