<svg width="34" height="34" viewBox="0 0 34 34" fill="none" xmlns="http://www.w3.org/2000/svg">
<path d="M22.6666 14.1667C22.6666 15.6696 22.0696 17.1109 21.0069 18.1736C19.9442 19.2363 18.5028 19.8333 16.9999 19.8333C15.497 19.8333 14.0557 19.2363 12.993 18.1736C11.9303 17.1109 11.3333 15.6696 11.3333 14.1667C11.3333 12.6638 11.9303 11.2224 12.993 10.1597C14.0557 9.09702 15.497 8.5 16.9999 8.5C18.5028 8.5 19.9442 9.09702 21.0069 10.1597C22.0696 11.2224 22.6666 12.6638 22.6666 14.1667Z" fill="#09E069"/>
<path fill-rule="evenodd" clip-rule="evenodd" d="M16.4219 31.1554C8.86613 30.8522 2.83325 24.6302 2.83325 17C2.83325 9.17579 9.17567 2.83337 16.9999 2.83337C24.8242 2.83337 31.1666 9.17579 31.1666 17C31.1666 24.8243 24.8242 31.1667 16.9999 31.1667C16.9352 31.1671 16.8705 31.1671 16.8058 31.1667C16.6776 31.1667 16.5494 31.1625 16.4219 31.1554ZM7.90917 25.9392C7.80325 25.635 7.76719 25.3109 7.80368 24.9909C7.84017 24.6709 7.94827 24.3632 8.11995 24.0906C8.29163 23.8181 8.52249 23.5878 8.79538 23.4167C9.06827 23.2456 9.3762 23.1381 9.69629 23.1023C15.2185 22.491 18.8154 22.5463 24.3106 23.1151C24.6311 23.1485 24.9398 23.2545 25.2132 23.4253C25.4865 23.596 25.7173 23.8268 25.8879 24.1002C26.0585 24.3735 26.1645 24.6822 26.1978 25.0028C26.2311 25.3233 26.1908 25.6472 26.08 25.9498C28.4352 23.5669 29.7541 20.3504 29.7499 17C29.7499 9.9585 24.0415 4.25004 16.9999 4.25004C9.95838 4.25004 4.24992 9.9585 4.24992 17C4.24992 20.4822 5.64604 23.6385 7.90917 25.9392Z" fill="#09E069"/>
</svg>
