<svg width="34" height="34" viewBox="0 0 34 34" fill="none" xmlns="http://www.w3.org/2000/svg">
<path d="M1.41663 28.3335V24.3668C1.41663 23.564 1.62346 22.8259 2.03713 22.1525C2.45079 21.4791 2.99951 20.9658 3.68329 20.6126C5.14718 19.8807 6.63468 19.3315 8.14579 18.965C9.6569 18.5986 11.1916 18.4158 12.75 18.4168C14.3083 18.4168 15.843 18.6 17.3541 18.9665C18.8652 19.3329 20.3527 19.8816 21.8166 20.6126C22.5013 20.9668 23.0505 21.4806 23.4642 22.154C23.8779 22.8273 24.0842 23.565 24.0833 24.3668V28.3335H1.41663ZM26.9166 28.3335V24.0835C26.9166 23.0446 26.6272 22.0468 26.0482 21.09C25.4693 20.1333 24.649 19.3131 23.5875 18.6293C24.7916 18.771 25.925 19.0132 26.9875 19.356C28.05 19.6989 29.0416 20.1177 29.9625 20.6126C30.8125 21.0848 31.4618 21.61 31.9104 22.188C32.359 22.766 32.5833 23.3978 32.5833 24.0835V28.3335H26.9166ZM12.75 17.0001C11.1916 17.0001 9.8576 16.4453 8.74788 15.3355C7.63815 14.2258 7.08329 12.8918 7.08329 11.3335C7.08329 9.77512 7.63815 8.44109 8.74788 7.33137C9.8576 6.22165 11.1916 5.66678 12.75 5.66678C14.3083 5.66678 15.6423 6.22165 16.752 7.33137C17.8618 8.44109 18.4166 9.77512 18.4166 11.3335C18.4166 12.8918 17.8618 14.2258 16.752 15.3355C15.6423 16.4453 14.3083 17.0001 12.75 17.0001ZM26.9166 11.3335C26.9166 12.8918 26.3618 14.2258 25.252 15.3355C24.1423 16.4453 22.8083 17.0001 21.25 17.0001C20.9902 17.0001 20.6597 16.9704 20.2583 16.9109C19.8569 16.8514 19.5263 16.7867 19.2666 16.7168C19.9041 15.9612 20.3943 15.123 20.7371 14.2022C21.08 13.2814 21.2509 12.3251 21.25 11.3335C21.25 10.3418 21.079 9.38553 20.7371 8.4647C20.3952 7.54387 19.9051 6.70567 19.2666 5.95012C19.5972 5.83206 19.9277 5.75509 20.2583 5.7192C20.5888 5.68331 20.9194 5.66584 21.25 5.66678C22.8083 5.66678 24.1423 6.22165 25.252 7.33137C26.3618 8.44109 26.9166 9.77512 26.9166 11.3335ZM4.24996 25.5001H21.25V24.3668C21.25 24.1071 21.1848 23.871 21.0545 23.6585C20.9241 23.446 20.7532 23.2807 20.5416 23.1626C19.2666 22.5251 17.9798 22.0472 16.6812 21.729C15.3826 21.4107 14.0722 21.2511 12.75 21.2501C11.4277 21.2501 10.1173 21.4097 8.81871 21.729C7.5201 22.0482 6.23329 22.5261 4.95829 23.1626C4.74579 23.2807 4.57438 23.446 4.44404 23.6585C4.31371 23.871 4.24901 24.1071 4.24996 24.3668V25.5001ZM12.75 14.1668C13.5291 14.1668 14.1964 13.8891 14.7517 13.3338C15.307 12.7785 15.5842 12.1117 15.5833 11.3335C15.5833 10.5543 15.3056 9.88703 14.7503 9.3317C14.195 8.77637 13.5282 8.49917 12.75 8.50012C11.9708 8.50012 11.3035 8.77778 10.7482 9.33312C10.1929 9.88845 9.91568 10.5552 9.91663 11.3335C9.91663 12.1126 10.1943 12.7799 10.7496 13.3352C11.305 13.8905 11.9717 14.1677 12.75 14.1668Z" fill="#00BF1F"/>
</svg>
