<svg width="34" height="34" viewBox="0 0 34 34" fill="none" xmlns="http://www.w3.org/2000/svg">
<rect width="34" height="34" fill="#1E1E1E"/>
<g clip-path="url(#clip0_0_1)">
<rect width="375" height="812" transform="translate(-29 -767)" fill="white"/>
<path d="M-28.5 15C-28.5 4.23045 -19.7696 -4.5 -9 -4.5H326C336.77 -4.5 345.5 4.23045 345.5 15V44.5H-28.5V15Z" fill="white" fill-opacity="0.95" stroke="#F1EFEF"/>
<path d="M14.9458 3.58697C15.5207 3.1025 16.2482 2.83679 17 2.83679C17.7518 2.83679 18.4793 3.1025 19.0542 3.58697L28.6167 11.6506C29.3349 12.257 29.75 13.148 29.75 14.0873V27.2765C29.75 27.934 29.4888 28.5646 29.0239 29.0295C28.5589 29.4944 27.9283 29.7556 27.2708 29.7556H22.3125C21.655 29.7556 21.0244 29.4944 20.5595 29.0295C20.0945 28.5646 19.8333 27.934 19.8333 27.2765V20.1832C19.8333 20.0893 19.796 19.9992 19.7296 19.9328C19.6632 19.8664 19.5731 19.829 19.4792 19.829H14.5208C14.4269 19.829 14.3368 19.8664 14.2704 19.9328C14.204 19.9992 14.1667 20.0893 14.1667 20.1832V27.2765C14.1667 27.934 13.9055 28.5646 13.4405 29.0295C12.9756 29.4944 12.345 29.7556 11.6875 29.7556H6.72917C6.4036 29.7556 6.08122 29.6915 5.78043 29.5669C5.47964 29.4423 5.20634 29.2597 4.97613 29.0295C4.74592 28.7993 4.56331 28.526 4.43872 28.2252C4.31413 27.9244 4.25 27.602 4.25 27.2765V14.0873C4.25 13.148 4.66508 12.257 5.38333 11.6506L14.9458 3.58697ZM17.6842 5.21188C17.4927 5.05064 17.2504 4.96222 17 4.96222C16.7496 4.96222 16.5073 5.05064 16.3158 5.21188L6.75325 13.2741C6.63491 13.3737 6.53975 13.498 6.47442 13.6382C6.40909 13.7784 6.37516 13.9312 6.375 14.0859V27.2751C6.375 27.4706 6.53367 27.6292 6.72917 27.6292H11.6875C11.7814 27.6292 11.8715 27.5919 11.9379 27.5255C12.0044 27.4591 12.0417 27.369 12.0417 27.2751V20.1818C12.0417 18.8119 13.1523 17.7026 14.5208 17.7026H19.4792C20.8477 17.7026 21.9583 18.8119 21.9583 20.1818V27.2751C21.9583 27.4706 22.117 27.6292 22.3125 27.6292H27.2708C27.3648 27.6292 27.4548 27.5919 27.5213 27.5255C27.5877 27.4591 27.625 27.369 27.625 27.2751V14.0859C27.6248 13.9312 27.5909 13.7784 27.5256 13.6382C27.4602 13.498 27.3651 13.3737 27.2467 13.2741L17.6842 5.21188Z" fill="#C5C5C5"/>
</g>
<defs>
<clipPath id="clip0_0_1">
<rect width="375" height="812" fill="white" transform="translate(-29 -767)"/>
</clipPath>
</defs>
</svg>
