<svg width="15" height="15" viewBox="0 0 15 15" fill="none" xmlns="http://www.w3.org/2000/svg">
<g id="iconamoon:comment">
<path id="Vector" d="M7.57215 12.8251C8.55972 12.8251 9.52512 12.5152 10.3463 11.9344C11.1674 11.3537 11.8074 10.5283 12.1853 9.56261C12.5633 8.5969 12.6621 7.53427 12.4695 6.50908C12.2768 5.48389 11.8012 4.54219 11.1029 3.80307C10.4046 3.06395 9.51489 2.5606 8.54629 2.35668C7.57769 2.15276 6.5737 2.25742 5.6613 2.65743C4.7489 3.05744 3.96906 3.73483 3.42039 4.60394C2.87172 5.47305 2.57887 6.49485 2.57887 7.54013C2.57887 8.41392 2.7786 9.23779 3.13368 9.96359L2.57887 12.8251L5.28245 12.2379C5.96819 12.6137 6.74715 12.8251 7.57215 12.8251Z" stroke="#505050" stroke-width="1.5" stroke-linecap="round" stroke-linejoin="round"/>
</g>
</svg>
